<svg xmlns="http://www.w3.org/2000/svg" viewBox="0 0 1440 800" preserveAspectRatio="xMidYMid slice">
  <defs>
    <radialGradient id="spot" cx="50%" cy="42%" r="52%">
      <stop offset="0%" stop-color="#1a1a1d"></stop>
      <stop offset="100%" stop-color="#09090b"></stop>
    </radialGradient>

    <linearGradient id="fadeL" x1="0%" y1="0%" x2="100%" y2="0%">
      <stop offset="0%" stop-color="#09090b" stop-opacity="1"></stop>
      <stop offset="100%" stop-color="#09090b" stop-opacity="0"></stop>
    </linearGradient>
    <linearGradient id="fadeR" x1="100%" y1="0%" x2="0%" y2="0%">
      <stop offset="0%" stop-color="#09090b" stop-opacity="1"></stop>
      <stop offset="100%" stop-color="#09090b" stop-opacity="0"></stop>
    </linearGradient>
    <linearGradient id="fadeB" x1="0%" y1="100%" x2="0%" y2="0%">
      <stop offset="0%" stop-color="#09090b" stop-opacity="1"></stop>
      <stop offset="60%" stop-color="#09090b" stop-opacity="0"></stop>
    </linearGradient>
    <linearGradient id="fadeT" x1="0%" y1="0%" x2="0%" y2="100%">
      <stop offset="0%" stop-color="#09090b" stop-opacity="1"></stop>
      <stop offset="100%" stop-color="#09090b" stop-opacity="0"></stop>
    </linearGradient>
  </defs>

  
  <rect width="1440" height="800" fill="url(#spot)"></rect>

  

  <g fill="none" stroke="#f97316" stroke-linecap="round" stroke-linejoin="round">

    
    <rect x="240" y="28" width="960" height="580" stroke-width="2.5" opacity="0.18"></rect>

    
    <line x1="240" y1="608" x2="1200" y2="608" stroke-width="2" opacity="0.15"></line>

    
    <circle cx="720" cy="608" r="71" stroke-width="2" opacity="0.13"></circle>

    
    <line x1="678" y1="34" x2="762" y2="34" stroke-width="4" opacity="0.28"></line>

    
    <circle cx="720" cy="90" r="19" stroke-width="2.5" opacity="0.28"></circle>

    
    <path d="M 700 28 A 22 22 0 0 0 740 28" stroke-width="2" opacity="0.18"></path>

    
    <rect x="605" y="28" width="230" height="226" stroke-width="2" opacity="0.16"></rect>

    
    <line x1="565" y1="28" x2="565" y2="48" stroke-width="1.5" opacity="0.13"></line>
    <line x1="875" y1="28" x2="875" y2="48" stroke-width="1.5" opacity="0.13"></line>
    <line x1="565" y1="112" x2="605" y2="112" stroke-width="1.5" opacity="0.13"></line>
    <line x1="835" y1="112" x2="875" y2="112" stroke-width="1.5" opacity="0.13"></line>
    <line x1="565" y1="170" x2="605" y2="170" stroke-width="1.5" opacity="0.13"></line>
    <line x1="835" y1="170" x2="875" y2="170" stroke-width="1.5" opacity="0.13"></line>
    <line x1="565" y1="226" x2="605" y2="226" stroke-width="1.5" opacity="0.13"></line>
    <line x1="835" y1="226" x2="875" y2="226" stroke-width="1.5" opacity="0.13"></line>

    
    <circle cx="720" cy="254" r="71" stroke-width="2" opacity="0.13"></circle>

    
    <line x1="298" y1="28" x2="298" y2="195" stroke-width="2" opacity="0.16"></line>
    <line x1="1142" y1="28" x2="1142" y2="195" stroke-width="2" opacity="0.16"></line>

    
    <path d="M 298 195 A 435 435 0 0 0 1142 195" stroke-width="2" opacity="0.16"></path>

  </g>

  
  <rect x="0" y="0" width="480" height="800" fill="url(#fadeL)"></rect>
  <rect x="960" y="0" width="480" height="800" fill="url(#fadeR)"></rect>
  <rect x="0" y="400" width="1440" height="400" fill="url(#fadeB)"></rect>
  <rect x="0" y="0" width="1440" height="60" fill="url(#fadeT)"></rect>

</svg>